<!-- icon666.com - MILLIONS vector ICONS FREE --><svg viewBox="0 0 64 64" xmlns="http://www.w3.org/2000/svg" xmlns:xlink="http://www.w3.org/1999/xlink"><linearGradient id="linear-gradient" gradientUnits="userSpaceOnUse" x1="13.432" x2="13.432" y1=".763" y2="61.645"><stop offset="0" stop-color="#38d6a4"></stop><stop offset=".171" stop-color="#32caae"></stop><stop offset=".478" stop-color="#22abc8"></stop><stop offset=".884" stop-color="#0879f2"></stop><stop offset=".999" stop-color="#0069ff"></stop></linearGradient><linearGradient id="linear-gradient-2" x1="11.432" x2="11.432" xlink:href="#linear-gradient" y1=".763" y2="61.645"></linearGradient><linearGradient id="linear-gradient-3" x1="20.432" x2="20.432" xlink:href="#linear-gradient" y1=".763" y2="61.645"></linearGradient><linearGradient id="linear-gradient-4" x1="48.633" x2="48.633" xlink:href="#linear-gradient" y1=".763" y2="61.645"></linearGradient><linearGradient id="linear-gradient-5" x1="10.463" x2="10.463" xlink:href="#linear-gradient" y1=".763" y2="61.645"></linearGradient><linearGradient id="linear-gradient-6" x1="37.339" x2="37.339" xlink:href="#linear-gradient" y1=".763" y2="61.645"></linearGradient><linearGradient id="linear-gradient-7" x1="53.575" x2="53.575" xlink:href="#linear-gradient" y1=".763" y2="61.645"></linearGradient><linearGradient id="linear-gradient-8" x1="60.721" x2="60.721" xlink:href="#linear-gradient" y1=".763" y2="61.645"></linearGradient><g id="_29-computer" data-name="29-computer"><path d="m16.019 47.586a.97.97 0 0 1 -.225-.025 4.448 4.448 0 0 1 -3.44-4.149 2.239 2.239 0 0 0 -1.731-2.09 1 1 0 1 1 .447-1.949 4.241 4.241 0 0 1 3.282 3.96 2.446 2.446 0 0 0 1.891 2.279 1 1 0 0 1 -.224 1.974z" fill="url(#linear-gradient)"></path><path d="m14.019 53.586a.97.97 0 0 1 -.225-.025 4.448 4.448 0 0 1 -3.44-4.149 2.239 2.239 0 0 0 -1.731-2.09 1 1 0 1 1 .447-1.949 4.241 4.241 0 0 1 3.282 3.96 2.446 2.446 0 0 0 1.891 2.279 1 1 0 0 1 -.224 1.974z" fill="url(#linear-gradient-2)"></path><path d="m21.576 34.354a.991.991 0 0 1 -.59-.193 4.45 4.45 0 0 1 -1.522-5.17 2.241 2.241 0 0 0 -.767-2.605 1 1 0 1 1 1.182-1.613 4.244 4.244 0 0 1 1.452 4.934 2.445 2.445 0 0 0 .837 2.84 1 1 0 0 1 -.592 1.807z" fill="url(#linear-gradient-3)"></path><path d="m51 55.71a2.444 2.444 0 0 1 -1.436-2.589 4.242 4.242 0 0 0 -2.493-4.5 1 1 0 0 0 -.8 1.832 2.242 2.242 0 0 1 1.316 2.375 4.445 4.445 0 0 0 2.613 4.714.981.981 0 0 0 .4.084 1 1 0 0 0 .4-1.916z" fill="url(#linear-gradient-4)"></path><path d="m17.924 36.156a7.174 7.174 0 0 1 -1.475-5.656 4.273 4.273 0 0 0 -2.316-4.55 2.283 2.283 0 0 1 -1.265-2.018 1 1 0 0 0 .995-1v-2.31a6.722 6.722 0 0 0 4.651-5.5 16.564 16.564 0 0 0 -1.867-10.149 7.715 7.715 0 0 0 -13.568 0 16.561 16.561 0 0 0 -1.866 10.145 6.72 6.72 0 0 0 4.65 5.5v2.31a1 1 0 0 0 1 1v2a4.213 4.213 0 0 0 2.342 3.789 2.239 2.239 0 0 1 1.195 2.443 4.446 4.446 0 0 0 2.365 4.84l5.651 2.826a1 1 0 0 0 1.228-1.52zm-10.061-14.224v-1h4v1zm-4.663-7.079a14.57 14.57 0 0 1 1.637-8.927 5.716 5.716 0 0 1 10.052 0 14.572 14.572 0 0 1 1.642 8.928 4.713 4.713 0 0 1 -4.658 4.078h-4.02a4.714 4.714 0 0 1 -4.653-4.079zm10.46 20.359a2.443 2.443 0 0 1 -1.3-2.66 4.244 4.244 0 0 0 -2.26-4.62 2.224 2.224 0 0 1 -1.236-2v-2h2a4.271 4.271 0 0 0 2.372 3.806 2.284 2.284 0 0 1 1.238 2.431 9.186 9.186 0 0 0 1.035 5.969z" fill="url(#linear-gradient-5)"></path><path d="m46.692 59.513a7.177 7.177 0 0 1 -2.49-5.29 4.278 4.278 0 0 0 -3.116-4.045 2.278 2.278 0 0 1 -1.614-1.749 1 1 0 0 0 .793-1.166l-.425-2.271a6.721 6.721 0 0 0 3.56-6.266 16.562 16.562 0 0 0 -3.7-9.627 7.716 7.716 0 0 0 -13.337 2.5 16.577 16.577 0 0 0 .035 10.315 6.71 6.71 0 0 0 5.584 4.541l.428 2.283a1 1 0 0 0 .983.815 1.05 1.05 0 0 0 .184-.017l.368 1.965a4.217 4.217 0 0 0 3 3.293 2.242 2.242 0 0 1 1.622 2.178 4.452 4.452 0 0 0 3.22 4.322l6.074 1.736a1.042 1.042 0 0 0 .275.038 1 1 0 0 0 .652-1.758zm-12.508-12.127-.184-.986 3.932-.737.184.984zm-5.892-6.1a14.574 14.574 0 0 1 -.031-9.078 5.712 5.712 0 0 1 4.388-3.869 5.811 5.811 0 0 1 1.056-.1 5.705 5.705 0 0 1 4.435 2.114 14.57 14.57 0 0 1 3.26 8.479 4.715 4.715 0 0 1 -3.828 4.868l-3.951.74a4.711 4.711 0 0 1 -5.329-3.151zm14.037 18.086a2.449 2.449 0 0 1 -1.77-2.372 4.246 4.246 0 0 0 -3.072-4.125 2.228 2.228 0 0 1 -1.587-1.743l-.368-1.965 1.968-.367a4.269 4.269 0 0 0 3.033 3.3 2.285 2.285 0 0 1 1.667 2.164 9.185 9.185 0 0 0 2.115 5.675z" fill="url(#linear-gradient-6)"></path><path d="m61.932 7.737a7.716 7.716 0 0 0 -13.232-3.02 16.569 16.569 0 0 0 -4.077 9.475 6.724 6.724 0 0 0 3.309 6.4l-.513 2.252a1 1 0 0 0 .752 1.2l-.445 1.95a4.211 4.211 0 0 0 1.44 4.215 2.242 2.242 0 0 1 .62 2.643 4.449 4.449 0 0 0 1.235 5.248l4.879 4.01a1 1 0 0 0 1.536-1.21l-1.2-2.481a7.178 7.178 0 0 1 -.179-5.843 4.275 4.275 0 0 0 -1.245-4.952 2.279 2.279 0 0 1 -.784-2.248.953.953 0 0 0 .218.025 1 1 0 0 0 .975-.778l.516-2.266a6.709 6.709 0 0 0 5.756-4.317 16.559 16.559 0 0 0 .439-10.303zm-8.438 15.469-3.9-.891.222-.974 3.9.89zm.715 8.612a9.181 9.181 0 0 0 -.32 6.049l-1.6-1.314a2.449 2.449 0 0 1 -.677-2.884 4.243 4.243 0 0 0 -1.175-5.006 2.224 2.224 0 0 1 -.759-2.225l.444-1.951 1.953.446a4.271 4.271 0 0 0 1.466 4.238 2.288 2.288 0 0 1 .668 2.647zm5.412-14.475a4.714 4.714 0 0 1 -5.449 2.941l-3.919-.895a4.715 4.715 0 0 1 -3.634-5.014 14.574 14.574 0 0 1 3.587-8.337 5.716 5.716 0 0 1 9.8 2.236 14.587 14.587 0 0 1 -.385 9.069z" fill="url(#linear-gradient-7)"></path><path d="m59.808 35.326a1 1 0 0 1 -.913-.59 4.449 4.449 0 0 1 1.228-5.248 2.242 2.242 0 0 0 .618-2.643 1 1 0 1 1 1.824-.82 4.244 4.244 0 0 1 -1.171 5.007 2.444 2.444 0 0 0 -.674 2.884 1 1 0 0 1 -.5 1.322 1.012 1.012 0 0 1 -.412.088z" fill="url(#linear-gradient-8)"></path></g></svg>