<!-- icon666.com - MILLIONS vector ICONS FREE --><svg id="Layer_1" enable-background="new 0 0 511.883 511.883" viewBox="0 0 511.883 511.883" xmlns="http://www.w3.org/2000/svg"><g><g><path d="m337.282 272.935-156.826-1.762c-12.211 0-21.139-19.18-21.188-6.969-.008 1.979.032 3.914.118 5.807l-72.901 9.988-2.598-.63v.986.022 53.684c0 38.206 14.228 73.086 37.672 99.639 17.375 19.679 26.698 45.185 26.64 71.437l-.241-4.28c-.014 6.086 4.916 11.026 11.002 11.026h149.614c6.076 0 11.002-4.926 11.002-11.002v5.017c0-26.341 9.426-51.924 26.969-71.573 23.775-26.629 38.228-61.756 38.228-100.264v-53.112c-.001-21.47-26.021-8.014-47.491-8.014z" fill="#ffe0d5"></path><path d="m337.282 272.935-102.954-1.157v240.104h74.246c6.076 0 11.002-4.926 11.002-11.002v5.017c0-26.341 9.426-51.924 26.97-71.573 23.774-26.629 38.228-61.756 38.228-100.264v-53.112c-.002-21.469-26.022-8.013-47.492-8.013z" fill="#ffc6bc"></path><path d="m196.797 184.077c20.785 0 37.635 16.849 37.639 37.639l-.11 91.96-75.163 37.404v-129.369c-.001-20.785 16.849-37.634 37.634-37.634z" fill="#ffe0d5"></path><path d="m347.115 106.806c20.785 0 37.635 16.85 37.635 37.635v163.278l-75.159 15.037-.11-178.315c-.001-20.785 16.849-37.635 37.634-37.635z" fill="#ffa69d"></path><path d="m271.956 184.077c20.785 0 37.634 16.849 37.634 37.634v91.925l-75.263.041v-91.96c-.006-20.791 16.844-37.64 37.629-37.64z" fill="#ffc6bc"></path><path d="m121.521 383.884c-20.785 0-37.635-16.85-37.635-37.634v-92.191c0-20.785 16.85-37.634 37.634-37.634 20.785 0 37.634 16.85 37.634 37.634v92.191c.002 20.784-16.848 37.634-37.633 37.634z" fill="#ffc6bc"></path><path d="m345.928 244.66c21.47 0 38.875 17.405 38.875 38.875v46.136h-166.528c-32.687 0-59.186-26.498-59.186-59.186v-14.85c0-6.062 4.914-10.976 10.976-10.976h175.863z" fill="#ffeee6"></path><path d="m345.928 244.66h-111.6v85.011h150.475v-46.136c0-21.471-17.405-38.875-38.875-38.875z" fill="#ffe0d5"></path></g><g><path d="m305.621 103.786h-23.191c-8.284 0-15-6.716-15-15s6.716-15 15-15h23.192c8.284 0 15 6.716 15 15s-6.716 15-15.001 15z" fill="#ff95ca"></path></g><g><path d="m305.621 152.765h-23.191c-8.284 0-15-6.716-15-15s6.716-15 15-15h23.192c8.284 0 15 6.716 15 15s-6.716 15-15.001 15z" fill="#ff95ca"></path></g><g><path d="m412.996 53.026h-24.868c-8.284 0-15-6.716-15-15s6.716-15 15-15h24.868c8.284 0 15 6.716 15 15s-6.716 15-15 15z" fill="#ff48a7"></path></g><g><path d="m412.996 103.786h-22.722c-8.103 0-15.098-6.226-15.456-14.321-.379-8.593 6.476-15.679 14.985-15.679h22.722c8.103 0 15.098 6.226 15.455 14.321.38 8.594-6.475 15.679-14.984 15.679z" fill="#ff48a7"></path></g><g><path d="m307.295 53.026h-24.865c-8.284 0-15-6.716-15-15s6.716-15 15-15h24.865c8.284 0 15 6.716 15 15s-6.716 15-15 15z" fill="#ff95ca"></path></g><g><path d="m412.996 152.765h-22.722c-8.103 0-15.098-6.226-15.456-14.321-.379-8.593 6.476-15.679 14.985-15.679h22.722c8.103 0 15.098 6.226 15.455 14.321.38 8.594-6.475 15.679-14.984 15.679z" fill="#ff48a7"></path></g><path d="m291.803 56.625v96.28c0 7.068 5.729 12.797 12.797 12.797h87.655c7.068 0 12.797-5.729 12.797-12.797v-96.28c0-31.273-25.352-56.625-56.625-56.625-31.273 0-56.624 25.352-56.624 56.625z" fill="#ff48a7"></path><path d="m348.427 0c-.414 0-.823.022-1.234.031v165.67h45.062c7.068 0 12.797-5.729 12.797-12.797v-96.28c0-31.272-25.352-56.624-56.625-56.624z" fill="#ff005d" style="fill: rgb(166, 0, 255);"></path></g></svg>