<!-- icon666.com - MILLIONS vector ICONS FREE --><svg id="Layer_1" viewBox="0 0 64 64" xmlns="http://www.w3.org/2000/svg" xmlns:xlink="http://www.w3.org/1999/xlink" data-name="Layer 1"><linearGradient id="linear-gradient" gradientUnits="userSpaceOnUse" x1="16.83" x2="41" y1="11.78" y2="51.45"><stop offset="0" stop-color="#e9007b"></stop><stop offset=".03" stop-color="#e30178"></stop><stop offset="1" stop-color="#ff94c1"></stop></linearGradient><linearGradient id="linear-gradient-2" x1="25.58" x2="49.74" xlink:href="#linear-gradient" y1="6.46" y2="46.12"></linearGradient><path d="m45 61h-26a1 1 0 0 1 -.92-.62 1 1 0 0 1 .21-1.09 15 15 0 0 0 1.24-19.84l-.44-.56a17.14 17.14 0 0 1 -3-14.83l1.91-7.19a14 14 0 0 1 28 0l1.92 7.19a17.14 17.14 0 0 1 -3 14.83l-.44.56a15 15 0 0 0 1.24 19.84 1 1 0 0 1 .21 1.09 1 1 0 0 1 -.93.62zm-23.8-2h21.6a17 17 0 0 1 .09-20.78l.44-.56a15.09 15.09 0 0 0 2.67-13.09l-2-7.31a1.15 1.15 0 0 1 0-.26 12 12 0 0 0 -24 0 1.15 1.15 0 0 1 0 .26l-2 7.31a15.09 15.09 0 0 0 2.65 13.09l.44.56a17 17 0 0 1 .11 20.78z" fill="url(#linear-gradient)"></path><path d="m29.83 22.6a4.37 4.37 0 0 1 -1.77-.38l-9.47-4.31a1 1 0 1 1 .82-1.82l9.48 4.31a2.29 2.29 0 0 0 2.11-.1l3.67-2.1a4.28 4.28 0 0 1 4.69.29 2.28 2.28 0 0 0 3-.21l2-2a1 1 0 0 1 1.42 1.42l-2 2a4.31 4.31 0 0 1 -5.6.39 2.28 2.28 0 0 0 -2.49-.15l-3.69 2.06a4.31 4.31 0 0 1 -2.17.6z" fill="url(#linear-gradient-2)"></path></svg>