<!-- icon666.com - MILLIONS vector ICONS FREE --><svg id="Capa_1" enable-background="new 0 0 512 512" viewBox="0 0 512 512" xmlns="http://www.w3.org/2000/svg"><g><path d="m331 125c0-31.849-6.892-62.023-19.405-84.964-14.082-25.818-33.826-40.036-55.595-40.036l-10 377h85z" fill="#5f29cc"/><path d="m200.405 40.036c-12.513 22.941-19.405 53.115-19.405 84.964v252h75v-377c-21.769 0-41.513 14.218-55.595 40.036z" fill="#884dff"/><path d="m256 512h105v-30l-115-10z" fill="#884dff"/><path d="m151 482v30h105v-40z" fill="#aa80ff"/><path d="m256 482h105v-90l-115-10z" fill="#aa80ff"/><path d="m256 382-105 10v30l10 15-10 15v30h105z" fill="#b9f"/><path d="m256 362-10 15 10 15h105v-30z" fill="#884dff"/><path d="m151 362h105v30h-105z" fill="#aa80ff"/><path d="m59.878 271.029c-9.872-23.807-14.878-49.05-14.878-75.029s5.006-51.222 14.878-75.029l27.712 11.491c-8.354 20.146-12.59 41.523-12.59 63.538s4.236 43.392 12.59 63.538z" fill="#ece6f2"/><path d="m115.325 248.063c-6.851-16.522-10.325-34.039-10.325-52.063s3.474-35.541 10.325-52.063l27.712 11.491c-5.333 12.862-8.037 26.511-8.037 40.572s2.704 27.71 8.037 40.571z" fill="#ece6f2"/><path d="m452.122 271.029-27.712-11.491c8.354-20.146 12.59-41.523 12.59-63.538s-4.236-43.392-12.59-63.538l27.712-11.491c9.872 23.807 14.878 49.05 14.878 75.029s-5.006 51.222-14.878 75.029z" fill="#cfcfe6"/><path d="m396.675 248.063-27.712-11.491c5.333-12.862 8.037-26.511 8.037-40.572s-2.704-27.71-8.037-40.571l27.712-11.491c6.851 16.521 10.325 34.038 10.325 52.062s-3.474 35.541-10.325 52.063z" fill="#cfcfe6"/><path d="m151 422h45v30h-45z" fill="#fff5f5"/></g></svg>