<!-- icon666.com - MILLIONS vector ICONS FREE --><svg id="Capa_1" class="svg-class c2" enable-background="new 0 0 511.978 511.978" viewBox="0 0 511.978 511.978" xmlns="http://www.w3.org/2000/svg"><g><path d="m361.399 167.888c-21.277 0-38.586 17.31-38.586 38.586v44.184c0 11.322-9.211 20.532-20.532 20.532h-17.053v77.172h22.109c51.087 0 92.649-41.562 92.649-92.649v-49.24c-.001-21.276-17.31-38.585-38.587-38.585z" fill="#ff9369"/><path d="m291.671 12.657c-23.219-17.797-55.821-16.703-77.803 2.506l-10 242.882 10 99.685 75.006-9.368v-124.599c0-48.591 7.936-96.552 23.585-142.55 8.493-24.964.139-52.513-20.788-68.556z" fill="#ffa368"/><g><path d="m213.349 15.606c-14.734 13.166-28.011 27.653-39.757 43.181-2.741 3.624-5.39 7.312-7.961 11.048l-53.637 213.309v65.218l86.777 11.253 15.097-1.885v-342.567c-.172.15-.349.291-.519.443z" fill="#ffb973"/><path d="m176.445 232.661v-35.904c0-23.244 2.361-46.579 7.019-69.356 4.26-20.824-3.201-42.485-17.833-57.566-34.574 50.234-53.637 110.257-53.637 172.269v26.64 14.401c3.771.844 7.947 1.237 12.732 1.237 28.518-.001 51.719-23.202 51.719-51.721z" fill="#ffa368"/></g><g><path d="m213.868 348.362-20 73.617 20 89.854c1.859.096 3.73.146 5.612.146h.248c38.126 0 69.145-31.019 69.145-69.145v-94.472z" fill="#a1a1a7"/><path d="m111.994 348.362v56.131c0 57.386 45.204 104.411 101.874 107.34v-163.471z" fill="#babac0"/></g><g><path d="m228.771 348.362h-14.903l-10 40.904 10 40.904h14.903z" fill="#7c8388"/><path d="m198.771 348.362h15.097v81.809h-15.097z" fill="#929298"/></g></g></svg>