<!-- icon666.com - MILLIONS vector ICONS FREE --><svg viewBox="0 0 64 64" xmlns="http://www.w3.org/2000/svg"><g id="_30-cum" data-name="30-cum"><path d="m50.154 19.273h3v6h-3z" fill="#6d5f9b" transform="matrix(.223 -.975 .975 .223 18.444 67.675)"></path><g fill="#b4a5e8"><path d="m53.947 21.258-3.919-.894a5.7 5.7 0 0 1 -4.407-6.08 15.67 15.67 0 0 1 3.832-8.907 6.716 6.716 0 0 1 6.54-2.115 6.716 6.716 0 0 1 4.974 4.743 15.674 15.674 0 0 1 -.411 9.688 5.7 5.7 0 0 1 -6.609 3.565z"></path><path d="m49.37 23.29-.67 2.925a3.239 3.239 0 0 0 1.1 3.22 3.237 3.237 0 0 1 .9 3.825 3.44 3.44 0 0 0 .954 4.065l4.88 4.012-1.2-2.48a8.167 8.167 0 0 1 -.2-6.659 3.3 3.3 0 0 0 -.956-3.8 3.3 3.3 0 0 1 -1.12-3.28l.214-.938z"></path><path d="m34.366 48.369.553 2.948a3.237 3.237 0 0 0 2.292 2.516 3.237 3.237 0 0 1 2.347 3.151 3.439 3.439 0 0 0 2.494 3.348l6.074 1.736-2.088-1.8a8.164 8.164 0 0 1 -2.838-6.025 3.3 3.3 0 0 0 -2.39-3.1 3.3 3.3 0 0 1 -2.335-2.562l-.177-.946z"></path></g><path d="m33.056 45.026h6v3h-6z" fill="#6d5f9b" transform="matrix(.983 -.184 .184 .983 -7.955 7.44)"></path><path d="m37.755 44.681-3.951.741a5.7 5.7 0 0 1 -6.464-3.822 15.671 15.671 0 0 1 -.033-9.7 6.713 6.713 0 0 1 5.156-4.545 6.716 6.716 0 0 1 6.452 2.369 15.665 15.665 0 0 1 3.485 9.054 5.7 5.7 0 0 1 -4.645 5.903z" fill="#b4a5e8"></path><path d="m6.861 19.932h6v3h-6z" fill="#6d5f9b"></path><path d="m7.861 22.932v3a3.238 3.238 0 0 0 1.789 2.9 3.234 3.234 0 0 1 1.726 3.529 3.441 3.441 0 0 0 1.835 3.751l5.65 2.825-1.721-2.156a8.17 8.17 0 0 1 -1.679-6.447 3.3 3.3 0 0 0 -1.778-3.491 3.3 3.3 0 0 1 -1.822-2.943v-.963z" fill="#b4a5e8"></path><path d="m11.871 19.932h-4.02a5.7 5.7 0 0 1 -5.651-4.946 15.675 15.675 0 0 1 1.756-9.537 6.715 6.715 0 0 1 5.905-3.517 6.715 6.715 0 0 1 5.9 3.517 15.676 15.676 0 0 1 1.755 9.537 5.7 5.7 0 0 1 -5.645 4.946z" fill="#b4a5e8"></path><path d="m17.921 36.155a7.169 7.169 0 0 1 -1.474-5.655 4.275 4.275 0 0 0 -2.317-4.551 2.28 2.28 0 0 1 -1.264-2.017 1 1 0 0 0 1-1v-2.311a6.721 6.721 0 0 0 4.651-5.5 16.569 16.569 0 0 0 -1.871-10.148 7.716 7.716 0 0 0 -13.569 0 16.566 16.566 0 0 0 -1.867 10.144 6.721 6.721 0 0 0 4.651 5.5v2.311a1 1 0 0 0 1 1v2a4.214 4.214 0 0 0 2.339 3.793 2.243 2.243 0 0 1 1.2 2.439 4.449 4.449 0 0 0 2.364 4.84l5.65 2.825a1 1 0 0 0 1.229-1.519zm-10.06-14.223v-1h4v1zm-4.669-7.078a14.593 14.593 0 0 1 1.643-8.928 5.716 5.716 0 0 1 10.053 0 14.578 14.578 0 0 1 1.641 8.928 4.713 4.713 0 0 1 -4.658 4.078h-4.019a4.716 4.716 0 0 1 -4.66-4.078zm10.466 20.358a2.445 2.445 0 0 1 -1.3-2.659 4.249 4.249 0 0 0 -2.258-4.621 2.224 2.224 0 0 1 -1.237-2v-2h2a4.27 4.27 0 0 0 2.372 3.805 2.286 2.286 0 0 1 1.239 2.433 9.179 9.179 0 0 0 1.033 5.967z"></path><path d="m16.241 45.612a2.445 2.445 0 0 1 -1.89-2.279 4.248 4.248 0 0 0 -3.282-3.961 1 1 0 0 0 -.449 1.949 2.243 2.243 0 0 1 1.733 2.091 4.451 4.451 0 0 0 3.439 4.15 1.023 1.023 0 0 0 .226.025 1 1 0 0 0 .223-1.975z"></path><path d="m14.241 51.612a2.445 2.445 0 0 1 -1.89-2.279 4.248 4.248 0 0 0 -3.282-3.961 1 1 0 0 0 -.449 1.949 2.243 2.243 0 0 1 1.733 2.091 4.451 4.451 0 0 0 3.439 4.15 1.023 1.023 0 0 0 .226.025 1 1 0 0 0 .223-1.975z"></path><path d="m21.329 29.706a4.248 4.248 0 0 0 -1.451-4.934 1 1 0 0 0 -1.184 1.614 2.243 2.243 0 0 1 .768 2.605 4.449 4.449 0 0 0 1.522 5.169 1 1 0 1 0 1.182-1.613 2.446 2.446 0 0 1 -.837-2.841z"></path><path d="m46.69 59.513a7.179 7.179 0 0 1 -2.49-5.289 4.275 4.275 0 0 0 -3.115-4.046 2.281 2.281 0 0 1 -1.615-1.75 1 1 0 0 0 .794-1.165l-.426-2.27a6.724 6.724 0 0 0 3.562-6.267 16.568 16.568 0 0 0 -3.7-9.627 7.716 7.716 0 0 0 -13.337 2.5 16.573 16.573 0 0 0 .036 10.314 6.712 6.712 0 0 0 5.584 4.543l.427 2.281a1 1 0 0 0 .982.816.982.982 0 0 0 .185-.018l.369 1.967a4.21 4.21 0 0 0 3 3.293 2.241 2.241 0 0 1 1.621 2.177 4.449 4.449 0 0 0 3.219 4.322l6.075 1.736a1 1 0 0 0 .926-1.719zm-12.507-12.127-.183-.986 3.931-.736.184.982zm-5.893-6.1a14.57 14.57 0 0 1 -.031-9.077 5.716 5.716 0 0 1 9.88-1.853 14.583 14.583 0 0 1 3.261 8.475 4.714 4.714 0 0 1 -3.83 4.869l-3.951.74a4.715 4.715 0 0 1 -5.329-3.152zm14.036 18.084a2.442 2.442 0 0 1 -1.768-2.37 4.246 4.246 0 0 0 -3.073-4.124 2.226 2.226 0 0 1 -1.585-1.743l-.368-1.966 1.968-.367a4.268 4.268 0 0 0 3.032 3.3 2.283 2.283 0 0 1 1.668 2.164 9.182 9.182 0 0 0 2.116 5.675z"></path><path d="m51 55.711a2.445 2.445 0 0 1 -1.436-2.591 4.245 4.245 0 0 0 -2.494-4.5 1 1 0 1 0 -.8 1.832 2.242 2.242 0 0 1 1.315 2.375 4.452 4.452 0 0 0 2.612 4.714.986.986 0 0 0 .4.084 1 1 0 0 0 .4-1.916z"></path><path d="m56.235 38.421a7.18 7.18 0 0 1 -.178-5.844 4.275 4.275 0 0 0 -1.245-4.95 2.28 2.28 0 0 1 -.785-2.249.953.953 0 0 0 .218.025 1 1 0 0 0 .975-.777l.517-2.267a6.709 6.709 0 0 0 5.755-4.317 16.57 16.57 0 0 0 .439-10.306 7.716 7.716 0 0 0 -13.231-3.019 16.566 16.566 0 0 0 -4.077 9.475 6.721 6.721 0 0 0 3.31 6.4l-.514 2.253a1 1 0 0 0 .752 1.2l-.445 1.949a4.212 4.212 0 0 0 1.44 4.216 2.245 2.245 0 0 1 .62 2.644 4.449 4.449 0 0 0 1.233 5.246l4.88 4.011a1 1 0 0 0 1.536-1.211zm-6.642-16.106.222-.975 3.9.89-.223.976zm-2.976-7.939a14.586 14.586 0 0 1 3.583-8.339 5.716 5.716 0 0 1 9.8 2.236 14.59 14.59 0 0 1 -.386 9.07 4.713 4.713 0 0 1 -5.449 2.94l-3.919-.894a4.714 4.714 0 0 1 -3.629-5.013zm7.59 17.441a9.184 9.184 0 0 0 -.32 6.05l-1.6-1.314a2.447 2.447 0 0 1 -.676-2.883 4.244 4.244 0 0 0 -1.175-5.007 2.224 2.224 0 0 1 -.76-2.225l.445-1.95 1.953.446a4.27 4.27 0 0 0 1.466 4.238 2.283 2.283 0 0 1 .667 2.645z"></path><path d="m62.563 26.024a1 1 0 1 0 -1.824.821 2.24 2.24 0 0 1 -.619 2.643 4.449 4.449 0 0 0 -1.227 5.248 1 1 0 1 0 1.824-.82 2.445 2.445 0 0 1 .675-2.883 4.246 4.246 0 0 0 1.171-5.009z"></path><ellipse cx="11.361" cy="6.432" fill="#fff" rx="1.5" ry="2.5" transform="matrix(.531 -.847 .847 .531 -.123 12.642)"></ellipse><ellipse cx="35.361" cy="31.432" fill="#fff" rx="1.5" ry="2.5" transform="matrix(.531 -.847 .847 .531 -10.052 44.699)"></ellipse><ellipse cx="57.361" cy="8.432" fill="#fff" rx="1.5" ry="2.5" transform="matrix(.774 -.633 .633 .774 7.625 38.227)"></ellipse></g></svg>