<!-- icon666.com - MILLIONS vector ICONS FREE --><svg id="Capa_1" enable-background="new 0 0 512 512" viewBox="0 0 512 512" xmlns="http://www.w3.org/2000/svg"><path d="m377.169 91.746c-8.509-9.36-19.869-14.106-33.765-14.106h-5.773v-44.397c0-18.33-14.913-33.243-33.243-33.243-15.45 0-28.471 10.595-32.183 24.9-5.441-3.887-12.093-6.184-19.275-6.184-14.701 0-27.195 9.595-31.57 22.849-5.55-4.156-12.436-6.621-19.887-6.621-16.932 0-30.938 12.727-32.978 29.115-5.288-3.55-11.645-5.625-18.479-5.625-18.33 0-33.243 14.913-33.243 33.243v41.223c0 .329.015.655.025.982-.011.164-.025.327-.025.494v78.098c0 1.009.099 25.043 8.725 53.499 1.237 4.081 5.765 6.329 9.771 4.877 3.699-1.341 5.751-5.477 4.612-9.237-7.948-26.22-8.078-48.919-8.079-49.139v-51.784c5.235 3.443 11.493 5.454 18.214 5.454 8.084 0 15.501-2.903 21.269-7.718 5.273 11.408 16.817 19.346 30.188 19.346 7.41 0 14.26-2.439 19.794-6.553 4.292 13.396 16.861 23.124 31.663 23.124 12.193 0 22.867-6.603 28.653-16.416 2.768 2.615 5.976 4.77 9.511 6.318-18.468 11.585-40.605 31.447-54.067 64.326-1.47 3.59.122 7.839 3.596 9.57 3.863 1.925 8.68.113 10.313-3.876 22.87-55.861 75.332-69.915 75.843-70.047 2.66-.67 4.744-2.737 5.435-5.391 0 0 7.278-28.03 7.29-28.083.867-4.059-1.721-8.052-5.78-8.919l-58.906-12.582c-13.514-2.887-23.322-15.476-23.322-29.934 0-3.661 2.743-6.639 6.113-6.639h85.794c9.618 0 17.026 3.005 22.645 9.186 12.687 13.956 16.877 44.521 12.455 90.846-.384 4.025 2.612 7.719 6.626 8.179 4.121.472 7.941-2.619 8.335-6.75 4.911-51.432-.42-84.923-16.295-102.385zm-208.938 41.155c0 10.043-8.171 18.214-18.214 18.214s-18.214-8.171-18.214-18.214v-41.223c0-10.043 8.171-18.214 18.214-18.214s18.214 8.171 18.214 18.214zm51.457 11.627c0 10.043-8.171 18.214-18.214 18.214s-18.214-8.171-18.214-18.214v-76.341c0-10.043 8.171-18.214 18.214-18.214s18.214 8.171 18.214 18.214zm66.486 2.508 36.399 7.775c-.066 1.18-.247 2.329-.528 3.439l-.027.102c-2.032 7.839-9.165 13.646-17.631 13.646-10.043 0-18.214-8.171-18.214-18.214v-6.748zm-15.029-69.396h-13.535c-11.658 0-21.143 9.72-21.143 21.668 0 21.314 14.552 39.934 34.677 44.504v17.286c0 10.043-8.17 18.214-18.214 18.214-10.043 0-18.214-8.171-18.214-18.214v-109.139c0-10.043 8.171-18.214 18.214-18.214 10.044 0 18.214 8.171 18.214 18.214v25.681zm51.457 0h-36.428v-25.681-18.716c0-10.043 8.171-18.214 18.214-18.214s18.213 8.171 18.213 18.214v44.397z"></path><path d="m383.406 215.885c-4.107-.601-7.922 2.245-8.521 6.352-.991 6.802-2.11 13.859-3.42 21.573-5.536 32.608-26.775 61.487-38.942 75.799-6.398 7.526-9.922 17.135-9.922 27.058v41.103h-144.325v-40.828c0-13.787-4.906-27.229-13.815-37.849-5.088-6.065-9.697-12.998-13.699-20.606-1.933-3.673-6.477-5.084-10.149-3.152-3.673 1.932-5.084 6.477-3.152 10.149 4.501 8.555 9.711 16.383 15.486 23.268 6.642 7.919 10.3 17.93 10.3 28.19v40.828h-17.268c-12.431 0-22.544 10.113-22.544 22.544v28.835c0 12.431 10.113 22.544 22.544 22.544h17.268v42.792c0 4.15 3.364 7.515 7.515 7.515h88.661c4.151 0 7.515-3.365 7.515-7.515s-3.364-7.515-7.515-7.515h-81.146v-35.278h144.325v35.278h-33.12c-4.151 0-7.515 3.365-7.515 7.515s3.364 7.515 7.515 7.515h40.635c4.151 0 7.515-3.365 7.515-7.515v-42.792h17.289c12.431 0 22.544-10.113 22.544-22.544v-28.835c0-12.431-10.113-22.544-22.544-22.544h-17.289v-41.103c0-6.36 2.253-12.512 6.342-17.323 13.166-15.488 36.171-46.867 42.31-83.019 1.329-7.832 2.466-15.002 3.474-21.921.599-4.106-2.245-7.921-6.352-8.519zm-220.159 230.778h-17.268c-4.144 0-7.515-3.371-7.515-7.515v-28.835c0-4.143 3.371-7.515 7.515-7.515h17.268zm94.718-43.864h24.803v43.865h-24.803zm-15.03 43.864h-24.805v-43.865h24.804v43.865zm-64.659-43.864h24.825v43.865h-24.825zm144.326 43.864h-24.804v-43.865h24.804zm32.318-43.864c4.144 0 7.515 3.371 7.515 7.515v28.835c0 4.144-3.371 7.515-7.515 7.515h-17.289v-43.865z"></path></svg>