<!-- icon666.com - MILLIONS vector ICONS FREE --><svg id="Capa_1" enable-background="new 0 0 512 512" viewBox="0 0 512 512" xmlns="http://www.w3.org/2000/svg"><g><path d="m512 256c0 78.68-35.5 149.08-91.36 196.04-3.555 2.99-25.537-12.458-29.254-9.663-5.033 3.785 8.134 25.732 2.824 29.143-6.67 4.29-13.55 8.27-20.62 11.92-10.216 5.298-45.689-12.681-56.652-8.78-26.82 9.543-30.847 37.34-60.938 37.34-30.78 0-60.29-5.43-87.63-15.4-98.23-35.78-168.37-130-168.37-240.6 0-141.38 114.62-256 256-256s256 114.62 256 256z" fill="#ffd15b"></path><g><path d="m138.56 107.36h155.81v364.16h-155.81z" fill="#a274bf"></path><path d="m373.59 483.44c-35.21 18.26-75.2 28.56-117.59 28.56h-68.54c-9.8 0-17.24-6.95-19.09-15.4-.95-4.34-.44-9.08 1.98-13.49l15.11-27.58h172.85l15.11 27.58c.06.11.12.22.17.33z" fill="#925cb4"></path><path d="m138.566 107.357h66.955v364.163h-66.955z" fill="#925cb4"></path><path d="m420.64 452.04c-8.37 7.04-17.2 13.55-26.43 19.48h-207.75c0-65.11 52.79-117.89 117.9-117.89 58.47 0 107 42.57 116.28 98.41z" fill="#a274bf"></path><path d="m336.434 358.041c-49.52 13.972-85.81 59.479-85.81 113.479h-64.161c0-65.117 52.79-117.896 117.896-117.896 11.117 0 21.872 1.54 32.075 4.417z" fill="#925cb4"></path><path d="m294.374 117.974v46.483c-15.501 18.846-38.998 30.865-65.297 30.865h-85.948v-.149c-1.54-.117-3.068-.319-4.566-.595v-76.604z" fill="#925cb4"></path><path d="m228.35 0c-37.116 0-68.679 23.731-80.365 56.847-4.656 13.194-13.703 24.233-25.422 31.877-12.051 7.861-20.017 21.457-20.017 36.92 0 23.164 17.876 42.14 40.584 43.918v.15h3.484 82.462c46.664 0 84.493-37.829 84.493-84.493.001-47.065-38.153-85.219-85.219-85.219z" fill="#a274bf"></path><path d="m248.136 167.548c-6.126 1.423-12.507 2.166-19.058 2.166l-85.948-.149c-11.35-.892-21.5-6.084-28.805-13.941-7.305-7.867-11.775-18.4-11.775-29.984 0-15.459 7.963-29.06 20.014-36.917 11.722-7.644 20.768-18.687 25.429-31.873 11.679-33.116 43.245-56.846 80.363-56.846 6.816 0 13.442.796 19.791 2.315-15.586 3.705-29.516 11.69-40.463 22.647-15.427 15.416-24.962 36.715-24.962 60.254 0 40.102 27.934 73.675 65.414 82.328z" fill="#925cb4"></path></g><g fill="#925cb4"><path d="m256.749 312.804-6.284-6.284c-5.734-5.733-8.892-13.357-8.892-21.465 0-8.74 3.403-16.957 9.584-23.136l1.373-1.373c9.957-9.958 15.441-23.197 15.441-37.278v-18.59c0-5.523-4.477-10-10-10s-10 4.477-10 10v18.59c0 7.097-2.244 13.849-6.397 19.446v-10.971c0-5.523-4.477-10-10-10s-10 4.477-10 10v53.312c0 13.451 5.238 26.097 14.749 35.608l6.284 6.284c5.734 5.733 8.892 13.357 8.892 21.465v45.119c0 5.523 4.477 10 10 10s10-4.477 10-10v-45.119c-.001-13.451-5.239-26.097-14.75-35.608z"></path><path d="m294.37 273.9v37.59c-1.07-4.62-3.42-8.87-6.86-12.31l-1.05-1.05c-8.64-8.64-13.4-20.12-13.4-32.34v-16.52c0-5.53 4.48-10 10-10 5.53 0 10 4.47 10 10v16.52c0 2.8.44 5.53 1.31 8.11z"></path></g></g></svg>