<!-- icon666.com - MILLIONS vector ICONS FREE --><svg id="Layer_1" viewBox="0 0 64 64" xmlns="http://www.w3.org/2000/svg" xmlns:xlink="http://www.w3.org/1999/xlink" data-name="Layer 1"><linearGradient id="linear-gradient" gradientUnits="userSpaceOnUse" x1="13.69" x2="49.19" y1="12.38" y2="42.71"><stop offset="0" stop-color="#e9007b"></stop><stop offset=".03" stop-color="#e30178"></stop><stop offset="1" stop-color="#ff94c1"></stop></linearGradient><linearGradient id="linear-gradient-2" x1="15" x2="50.5" xlink:href="#linear-gradient" y1="10.85" y2="41.18"></linearGradient><linearGradient id="linear-gradient-3" x1="-2.01" x2="33.49" xlink:href="#linear-gradient" y1="30.76" y2="61.09"></linearGradient><linearGradient id="linear-gradient-5" x1="10.95" x2="46.45" xlink:href="#linear-gradient" y1="15.59" y2="45.92"></linearGradient><path d="m21.43 30a11.06 11.06 0 0 1 -8.88-4.51 10.89 10.89 0 0 1 -2.12-6.49 11 11 0 0 1 21.1-4.36 10.81 10.81 0 0 1 .9 4.36 11 11 0 0 1 -11 11zm0-20a9 9 0 0 0 -9 9 8.91 8.91 0 0 0 1.74 5.31 9 9 0 0 0 16.26-5.31 8.8 8.8 0 0 0 -.74-3.56 9 9 0 0 0 -8.26-5.44z" fill="url(#linear-gradient)"></path><path d="m44.43 47a11.11 11.11 0 0 1 -2.51-.29 11 11 0 1 1 2.51.29zm0-20a9 9 0 0 0 -2 17.77 9.27 9.27 0 0 0 2 .23 9 9 0 0 0 1.48-17.87 8.3 8.3 0 0 0 -1.48-.13z" fill="url(#linear-gradient-2)"></path><path d="m17 58a11 11 0 1 1 11-11 11 11 0 0 1 -11 11zm0-20a9 9 0 1 0 9 9 9 9 0 0 0 -9-9z" fill="url(#linear-gradient-3)"></path><path d="m17 53a6 6 0 1 1 6-6 6 6 0 0 1 -6 6zm0-10a4 4 0 1 0 4 4 4 4 0 0 0 -4-4z" fill="url(#linear-gradient-3)"></path><path d="m29.43 52a19.24 19.24 0 0 1 -3.32-.29 1 1 0 1 1 .35-2 17.26 17.26 0 0 0 3 .26 16.92 16.92 0 0 0 10.74-3.81 11 11 0 0 1 4.23-21.16 17.1 17.1 0 0 0 -12.36-8.79 10.78 10.78 0 0 1 .36 2.79 11 11 0 0 1 -19.88 6.49 1 1 0 1 1 1.62-1.18 9 9 0 0 0 16.26-5.31 8.8 8.8 0 0 0 -.74-3.56 1 1 0 0 1 1-1.4 19.1 19.1 0 0 1 16.31 11.72 1 1 0 0 1 -.15 1 1 1 0 0 1 -1 .37 8.11 8.11 0 0 0 -1.42-.13 9 9 0 0 0 -2 17.77 1 1 0 0 1 .73.7 1 1 0 0 1 -.25 1 19 19 0 0 1 -13.48 5.53z" fill="url(#linear-gradient-5)"></path></svg>