<!-- icon666.com - MILLIONS vector ICONS FREE --><svg viewBox="0 0 64 64" xmlns="http://www.w3.org/2000/svg"><g id="outline"><path d="m35.445 28.168a6.318 6.318 0 0 1 -5.134.882l-.627 1.9a7.5 7.5 0 0 0 2.2.3 8.353 8.353 0 0 0 4.675-1.418z"></path><path d="m29.316 31.051-.632 1.9c.023.006 2.316.807 2.316 4.049h2c0-4.667-3.533-5.9-3.684-5.949z"></path><path d="m58.889 35.135c-3.79-2.08-10.141-.615-17.426 4.021-8.723 5.552-22.325 8.417-25.989 5.474-.4-.321-1.62-1.3-.534-4.288 1.328-3.654 3.1-5.916 5.271-6.726a5.475 5.475 0 0 1 4.293.252 1 1 0 0 0 1.31-.287l5-7a1 1 0 0 0 -.189-1.362c-.021-.016-2.06-1.7-2.171-3.713a3.614 3.614 0 0 1 1.253-2.8c2.328-2.328 2.646-4.536 2.5-5.979a7.8 7.8 0 0 0 -3.655-5.56 1.054 1.054 0 0 0 -.118-.067c-.269-.132-6.669-3.133-13.783 2.81a1.026 1.026 0 0 1 -.869.17 3.918 3.918 0 0 0 -2.177.172 4.022 4.022 0 0 0 -2.454 2.648 4.094 4.094 0 0 0 .344 3.038l-.07.085a3.746 3.746 0 0 0 -2.934.977 3.9 3.9 0 0 0 -1.485 3.173 4.157 4.157 0 0 0 .866 2.292 1.108 1.108 0 0 1 .222 1.01 52.371 52.371 0 0 0 -2.08 11.361l-2.009 12.064a8.705 8.705 0 0 0 2.3 6.848 7.24 7.24 0 0 0 5.758 2.252c1.642-.1 3.212-.314 4.731-.517a40.814 40.814 0 0 1 5.206-.483 36.49 36.49 0 0 1 4.819.632 78.606 78.606 0 0 0 13.181 1.368c8.393 0 24-8.224 24-16 0-3.436-1.692-5.086-3.111-5.865zm-51.123-16.595a1.769 1.769 0 0 1 1.419-.529 2.1 2.1 0 0 0 2-1 2.053 2.053 0 0 0 .057-2.083 1.95 1.95 0 0 1 -.162-1.493 1.988 1.988 0 0 1 1.22-1.304 1.931 1.931 0 0 1 1.078-.092 3 3 0 0 0 2.561-.594c.068-.057.135-.1.2-.157.336 5.436-1.149 11.685-8.634 14.531.153-.582.316-1.166.5-1.754a3.081 3.081 0 0 0 -.554-2.83 2.133 2.133 0 0 1 -.451-1.18 1.9 1.9 0 0 1 .766-1.515zm30.234 36.46a76.883 76.883 0 0 1 -12.85-1.34 36.452 36.452 0 0 0 -5.15-.66 42.05 42.05 0 0 0 -5.471.5c-1.485.2-3.02.4-4.592.5a5.275 5.275 0 0 1 -4.19-1.643 6.658 6.658 0 0 1 -1.761-5.194l2.014-12.089a54.516 54.516 0 0 1 .975-6.96c10.8-3.35 11.666-12.518 11.069-18.161 4.914-2.9 8.93-1.316 9.468-1.078a5.794 5.794 0 0 1 2.711 4.05 5.448 5.448 0 0 1 -1.927 4.368 5.568 5.568 0 0 0 -1.836 4.324 7.469 7.469 0 0 0 2.221 4.513l-4.021 5.63a7.444 7.444 0 0 0 -5.106-.031c-2.762 1.012-4.946 3.68-6.491 7.929-1.3 3.582-.087 5.53 1.162 6.532 4.877 3.916 19.478.277 28.315-5.346 6.454-4.108 12.35-5.625 15.39-3.956a4.294 4.294 0 0 1 2.07 4.112c0 5.194-12.5 14-22 14z"></path><path d="m8.062 49.252c-1.491-1.959.164-7.19.861-8.868l-1.846-.769c-.321.77-3.064 7.617-.607 10.847a4.28 4.28 0 0 0 3.624 1.6 8.3 8.3 0 0 0 1.03-.068l-.248-1.984c-2.045.251-2.624-.51-2.814-.758z"></path><path d="m54 38v2c.754 0 1.925.268 2.068.734.065.212.376 2.248-8.632 8.442l1.132 1.648c9.4-6.463 9.873-9.193 9.41-10.684-.648-2.08-3.639-2.14-3.978-2.14z"></path><path d="m53.508 41.05c-.289-1.582-2.106-1.989-2.312-2.03l-.4 1.959c.306.066.718.283.744.432 0 .01.14 1.11-4.055 3.731a9.362 9.362 0 0 1 -1.835.851c.054-.142.132-.322.244-.546l-1.79-.894c-.3.6-1.09 2.18-.09 3.107a1.682 1.682 0 0 0 1.185.414 7.339 7.339 0 0 0 3.33-1.226c3.698-2.31 5.28-4.148 4.979-5.798z"></path><path d="m24.226 11.313c1.11.214 2.07 1.25 2.855 3.081l1.838-.788c-1.062-2.478-2.514-3.906-4.319-4.257-2.791-.537-5.209 1.842-5.311 1.944l1.414 1.414c.022-.017 1.79-1.728 3.523-1.394z"></path></g></svg>