<!-- icon666.com - MILLIONS vector ICONS FREE --><svg id="Capa_1" enable-background="new 0 0 512 512" viewBox="0 0 512 512" xmlns="http://www.w3.org/2000/svg"><g><path d="m449.55 48.096c-3.641-27.419-27.283-48.096-54.95-48.096-.083 0-.161 0-.243 0-29.176 0-53.568 22.799-55.581 52.006-2.519 36.591-10.739 101.606-23.058 130.743-14.839 35.096-39.394 67.738-69.142 91.916-29.974 24.362-63.913 38.932-95.565 41.024-.094.007-.188.014-.281.022-20.555 1.941-40.82 9.396-54.134 19.883-28.175 21.752-41.637 56.256-36.011 92.299 5.635 36.105 29.97 66.086 63.508 78.244.084.03.168.06.253.088 11.848 3.939 21.988 5.774 31.913 5.774 163.442 0 296.412-172.428 296.412-384.371.001-14.396-1.073-64.104-3.121-79.532zm-293.29 443.904c-7.682 0-15.779-1.497-25.474-4.71-27.017-9.845-45.868-33.191-50.439-62.48-4.483-28.725 6.16-56.158 28.548-73.442 10.123-7.972 26.4-13.913 42.69-15.63.751 16.783 14.591 30.161 31.56 30.161 17.45 0 31.596-14.146 31.596-31.596 0-5.07-1.201-9.856-3.323-14.102 16.361-7.477 32.413-17.529 47.774-30.014 4.279-3.478 8.456-7.122 12.526-10.909 30.988 56.326 29.887 125.965-3.5 181.3-1.925 1.132-3.859 2.24-5.807 3.317-33.745 18.649-69.459 28.105-106.151 28.105zm194.15-105.564c-14.905 19.41-31.216 36.355-48.751 50.73 8.619-23.16 12.918-47.811 12.578-72.841-.48-35.287-10.104-69.621-27.898-99.798 19.994-21.842 36.498-47.255 47.802-73.989 14.312-33.85 22.343-104.52 24.59-137.158 1.29-18.747 16.925-33.38 35.67-33.38h.156c17.722 0 32.84 13.21 35.167 30.729 1.773 13.354 2.948 61.125 2.948 76.9 0 97.812-29.215 189.725-82.262 258.807z"></path></g></svg>