<!-- icon666.com - MILLIONS vector ICONS FREE --><svg id="Layer_1" enable-background="new 0 0 512 512" viewBox="0 0 512 512" xmlns="http://www.w3.org/2000/svg"><g><path d="m392.566 222.8c-8.284 0-15-6.716-15-15v-80.333c0-53.743-43.723-97.467-97.466-97.467s-97.466 43.724-97.466 97.467c0 8.284-6.716 15-15 15s-15-6.716-15-15c0-70.285 57.18-127.467 127.466-127.467s127.467 57.182 127.467 127.467v80.333c-.001 8.284-6.716 15-15.001 15z" fill="#21043b"></path><path d="m424.7 192.8h-64.267c-8.284 0-15 6.716-15 15v79.267c0 8.284 6.716 15 15 15h64.267c8.284 0 15-6.716 15-15v-79.267c0-8.284-6.716-15-15-15z" fill="#40276d"></path><path d="m439.7 287.067v-79.267c0-8.284-6.716-15-15-15h-32.134v109.267h32.134c8.284 0 15-6.716 15-15z" fill="#301455"></path><path d="m264.033 432.733h-192.8c-8.284 0-15-6.716-15-15v-193.867c0-3.979 1.58-7.794 4.394-10.606l96.4-96.399c5.858-5.858 15.356-5.858 21.213 0l96.399 96.399c2.813 2.812 4.394 6.628 4.394 10.606v193.867c0 8.285-6.716 15-15 15z" fill="#ecdbef"></path><path d="m279.033 417.733v-193.867c0-3.979-1.58-7.794-4.394-10.606l-96.399-96.4c-2.928-2.929-6.768-4.394-10.607-4.394v320.267h96.4c8.284 0 15-6.715 15-15z" fill="#e2c7e0"></path><path d="m264.033 497h-192.8c-8.284 0-15-6.716-15-15v-64.267h222.8v64.267c0 8.284-6.716 15-15 15z" fill="#00b3ff"></path><path d="m279.033 482v-64.267h-111.4v79.267h96.4c8.285 0 15-6.716 15-15z" fill="#009cfe"></path><path d="m135.5 303.134c-8.284 0-15-6.716-15-15v-32.134c0-8.284 6.716-15 15-15s15 6.716 15 15v32.134c0 8.284-6.716 15-15 15z" fill="#f5f0fb"></path><path d="m135.5 383.467c-8.284 0-15-6.716-15-15v-16.067c0-8.284 6.716-15 15-15s15 6.716 15 15v16.066c0 8.285-6.716 15.001-15 15.001z" fill="#f5f0fb"></path><path d="m280.1 512h-224.933c-8.284 0-15-6.716-15-15s6.716-15 15-15h224.933c8.284 0 15 6.716 15 15s-6.716 15-15 15z" fill="#7ecfff"></path><path d="m295.1 497c0-8.284-6.716-15-15-15h-112.467v30h112.467c8.284 0 15-6.716 15-15z" fill="#00b3ff"></path><path d="m392.566 447.733c-43.708 0-79.267-35.559-79.267-79.267v-32.134c0-43.708 35.559-79.267 79.267-79.267s79.267 35.559 79.267 79.267v32.134c0 43.709-35.559 79.267-79.267 79.267z" fill="#301455"></path><path d="m471.833 368.467v-32.134c0-43.708-35.559-79.267-79.267-79.267v190.667c43.708 0 79.267-35.558 79.267-79.266z" fill="#21043b"></path></g></svg>