<!-- icon666.com - MILLIONS vector ICONS FREE --><svg viewBox="0 0 64 64" xmlns="http://www.w3.org/2000/svg" xmlns:xlink="http://www.w3.org/1999/xlink"><linearGradient id="linear-gradient" gradientUnits="userSpaceOnUse" x1="56.749" x2="56.749" y1="-.778" y2="66.427"><stop offset="0" stop-color="#38d6a4"></stop><stop offset=".171" stop-color="#32caae"></stop><stop offset=".478" stop-color="#22abc8"></stop><stop offset=".884" stop-color="#0879f2"></stop><stop offset=".999" stop-color="#0069ff"></stop></linearGradient><linearGradient id="linear-gradient-2" x1="32.293" x2="32.293" xlink:href="#linear-gradient" y1="-.778" y2="66.427"></linearGradient><linearGradient id="linear-gradient-3" x1="27.758" x2="27.758" xlink:href="#linear-gradient" y1="-.778" y2="66.427"></linearGradient><linearGradient id="linear-gradient-4" x1="15.737" x2="15.737" xlink:href="#linear-gradient" y1="-.778" y2="66.427"></linearGradient><linearGradient id="linear-gradient-5" x1="43.314" x2="43.314" xlink:href="#linear-gradient" y1="-.778" y2="66.427"></linearGradient><g id="_08-ass_dildo" data-name="08-ass dildo"><path d="m56.749 60.747a4 4 0 1 1 2.828-6.827 4 4 0 0 1 -2.828 6.827zm0-6a2 2 0 1 0 1.414.584 2 2 0 0 0 -1.414-.581z" fill="url(#linear-gradient)"></path><path d="m56.749 63.749a7 7 0 0 1 -6.556-9.462 12.582 12.582 0 0 1 -2.168-2.132 10.5 10.5 0 0 1 -14.259-14.255 12.276 12.276 0 0 1 -1.059-.946 12.585 12.585 0 0 1 -1.007-1.143 8.492 8.492 0 0 1 -11.289-11.288 12.531 12.531 0 0 1 -2.211-2.231 7 7 0 0 1 -9.017-9.018 12.389 12.389 0 0 1 -1.225-1.074 12.473 12.473 0 0 1 -1.246-1.453 4.985 4.985 0 0 1 -5.875-4.91 5 5 0 0 1 8.536-3.537 4.947 4.947 0 0 1 1.375 4.41 12.473 12.473 0 0 1 1.452 1.248 12.389 12.389 0 0 1 1.073 1.223 7 7 0 0 1 9.019 9.019 12.531 12.531 0 0 1 2.231 2.213 8.492 8.492 0 0 1 11.288 11.287 12.585 12.585 0 0 1 1.139 1.009 12.276 12.276 0 0 1 .946 1.059 10.507 10.507 0 0 1 12.489 1.77 10.508 10.508 0 0 1 1.77 12.489 12.727 12.727 0 0 1 1.058.946 12.52 12.52 0 0 1 1.074 1.222 7 7 0 1 1 2.462 13.556zm-8.463-13.927a1.019 1.019 0 0 1 .19.018 1 1 0 0 1 .639.423 10.389 10.389 0 0 0 1.27 1.536 10.275 10.275 0 0 0 1.607 1.315 1 1 0 0 1 .333 1.3 5 5 0 1 0 2.091-2.091 1 1 0 0 1 -1.3-.333 10.275 10.275 0 0 0 -1.316-1.605 10.389 10.389 0 0 0 -1.536-1.27 1 1 0 0 1 -.264-1.39 8.5 8.5 0 0 0 -11.8-11.8 1 1 0 0 1 -1.391-.268 10.484 10.484 0 0 0 -2.841-2.828 1 1 0 0 1 -.3-1.351 6.491 6.491 0 0 0 -8.918-8.919 1 1 0 0 1 -1.351-.3 10.439 10.439 0 0 0 -1.299-1.573 10.323 10.323 0 0 0 -1.606-1.314 1 1 0 0 1 -.334-1.3 5 5 0 0 0 -6.76-6.759 1 1 0 0 1 -1.3-.334 10.3 10.3 0 0 0 -1.315-1.606 10.152 10.152 0 0 0 -1.72-1.388 1 1 0 0 1 -.409-1.171 2.972 2.972 0 0 0 -.7-3.1 3.07 3.07 0 0 0 -4.242 0 2.99 2.99 0 0 0 3.1 4.942 1 1 0 0 1 1.171.409 10.152 10.152 0 0 0 1.388 1.72 10.3 10.3 0 0 0 1.606 1.315 1 1 0 0 1 .334 1.3 5 5 0 0 0 6.757 6.76 1 1 0 0 1 1.3.334 10.377 10.377 0 0 0 1.316 1.606 10.493 10.493 0 0 0 1.573 1.293 1 1 0 0 1 .3 1.351 6.491 6.491 0 0 0 8.919 8.918 1 1 0 0 1 1.351.3 10.484 10.484 0 0 0 2.828 2.841 1 1 0 0 1 .268 1.391 8.5 8.5 0 0 0 11.8 11.806 1 1 0 0 1 .561-.178z" fill="url(#linear-gradient-2)"></path><path d="m27.757 33.169a3.986 3.986 0 0 1 -2.828-1.169 1 1 0 0 1 1.414-1.414 2 2 0 0 0 2.829 0 1 1 0 0 1 1.414 1.414 3.986 3.986 0 0 1 -2.829 1.169z" fill="url(#linear-gradient-3)"></path><path d="m15.736 19.941a3.487 3.487 0 0 1 -2.474-1.022 1 1 0 1 1 1.414-1.419 1.5 1.5 0 0 0 2.121 0 1 1 0 1 1 1.414 1.415 3.487 3.487 0 0 1 -2.475 1.026z" fill="url(#linear-gradient-4)"></path><path d="m43.313 49.935a4.468 4.468 0 0 1 -3.181-1.318 1 1 0 1 1 1.414-1.417 2.562 2.562 0 0 0 3.536 0 1 1 0 1 1 1.418 1.417 4.471 4.471 0 0 1 -3.187 1.318z" fill="url(#linear-gradient-5)"></path></g></svg>