<!-- icon666.com - MILLIONS vector ICONS FREE --><svg id="Layer_1" enable-background="new 0 0 512 512" viewBox="0 0 512 512" xmlns="http://www.w3.org/2000/svg"><g><g><path d="m308.759 512h-105.518c-40.296 0-72.963-32.59-72.963-72.792v-84.595c0-26.717 23.217-45.01 23.217-71.754 0-26.691-23.217-45.003-23.217-71.754v-119.214h251.444v123.499c0 24.694-18.913 42.689-18.913 67.469 0 24.562 18.913 42.861 18.913 67.469v88.88c0 40.202-32.666 72.792-72.963 72.792z" fill="#555887"/><path d="m381.722 91.891h-51.509v123.499c0 24.694-18.913 42.689-18.913 67.469 0 24.562 18.913 42.861 18.913 67.469v88.88c0 40.202-32.667 72.792-72.963 72.792h51.509c40.296 0 72.963-32.59 72.963-72.792v-88.88c0-24.609-18.913-42.908-18.913-67.469 0-24.78 18.913-42.775 18.913-67.469z" fill="#4b4d82"/><path d="m381.722 91.891s-6.309-39.604-44.987-60.26c-12.144-6.485-26.88-5.457-38.384 2.102-8.426 5.536-20.226 11.722-34.333 14.922-5.272 1.196-10.764 1.196-16.035 0-14.107-3.199-25.908-9.385-34.333-14.922-11.503-7.558-26.24-8.587-38.384-2.102-38.678 20.656-44.987 60.26-44.987 60.26z" fill="#fadccb"/><g><path d="m336.735 31.631c-12.144-6.485-26.88-5.456-38.384 2.102-1.491.98-3.094 1.98-4.791 2.981 31.254 21.438 36.653 55.178 36.653 55.178h51.509c0-.001-6.309-39.606-44.987-60.261z" fill="#f5d1bd"/></g><path d="m256 66.7c-37.239-.248-73.777-16.057-71.255-46.273 1.853-22.198 32.049-29.009 40.427-6.746 3.512 7.705 15.423 31.961 30.828 31.961 15.405 0 27.316-24.256 30.828-31.961 8.378-22.263 38.574-15.452 40.427 6.746 2.522 30.216-34.016 46.026-71.255 46.273z" fill="#ff82e7"/><path d="" fill="#fadccb"/></g><path d="m273.582 465.201h-35.164c-12.044 0-21.808-9.764-21.808-21.808v-272.375c0-21.738 17.622-39.36 39.36-39.36h.059c21.738 0 39.36 17.622 39.36 39.36v272.375c.001 12.044-9.763 21.808-21.807 21.808z" fill="#8384bd"/></g></svg>