<!-- icon666.com - MILLIONS vector ICONS FREE --><svg id="Layer_1" enable-background="new 0 0 511.405 511.405" viewBox="0 0 511.405 511.405" xmlns="http://www.w3.org/2000/svg"><path d="m416.37 481.405h-10.914c16.731-17.751 25.914-40.836 25.914-65.333.25-83.274-101.121-126.288-160.667-69.365v-251.984c-4.603-126.318-186.07-126.282-190.667.016v85.691c0 4.822 2.317 9.35 6.229 12.168 2.883 2.074 6.366 3.047 9.838 2.789v286.018h-1.067c-19.881.738-19.866 29.269 0 30h321.334c19.88-.737 19.865-29.269 0-30zm-306.334-386.666c3.361-86.933 127.622-86.201 130.667-.016 0 18.271-14.418 26.147-20.222 28.081l-110.445 36.815zm272.194 367.533c-12.332 12.339-28.737 19.134-46.194 19.134h-209.933v-295.52l103.862-34.621c3.782-1.26 7.371-2.873 10.737-4.793v269.6c.748 19.885 29.263 19.866 30 0 0-36.025 29.309-65.333 65.333-65.333 57.665-.32 87.134 71.046 46.195 111.533z"/></svg>