<!-- icon666.com - MILLIONS vector ICONS FREE --><svg id="Capa_1" enable-background="new 0 0 512 512" viewBox="0 0 512 512" xmlns="http://www.w3.org/2000/svg"><path d="m124.289 136.591v75.884s0 60.419 34.415 101.446c7.695 9.174 12.058 20.853 12.058 33.02v157.544h159.355v-157.818c0-8.127 2.868-15.998 8.131-22.19 12.28-14.445 34.75-44.806 40.627-79.409 12.757-75.119 19.449-159.913-35.471-159.913h-85.793c-7.527 0-13.629 6.337-13.629 14.154 0 18.066 12.228 33.643 29.268 37.283h-148.961z" fill="#ffc89f"></path><g fill="#f7bc94"><path d="m273.25 118.556c-13.35-2.852-23.745-13.033-27.621-25.996-1.05 2.006-1.646 4.305-1.646 6.749 0 18.066 12.228 33.643 29.268 37.283l58.906 12.582c1.705-9.705-4.575-19.019-14.212-21.076z"></path><path d="m241.421 383.518h18.035v159.355h-18.035z" transform="matrix(0 1 -1 0 713.634 212.757)"></path><path d="m343.404 85.155h-18.035c54.92 0 48.227 84.794 35.471 159.913-5.876 34.603-28.347 55.947-40.627 70.392-5.264 6.192-8.131 14.063-8.131 22.19v166.836h18.035v-157.819c0-8.127 2.867-15.998 8.131-22.19 12.28-14.445 34.75-44.806 40.627-79.409 12.756-75.119 19.448-159.913-35.471-159.913z"></path></g><path d="m273.25 136.591c-17.039-3.639-29.268-19.217-29.268-37.283 0-7.817 6.102-14.154 13.629-14.154h21.049v-33.195c0-14.209-11.519-25.729-25.729-25.729-14.209 0-25.729 11.519-25.729 25.729v109.14c0 14.21 11.519 25.729 25.729 25.729s25.729-11.519 25.729-25.729v-23.352z" fill="#fdad7c"></path><path d="m260.624 131.194v29.905c0 11.036-6.95 20.446-16.711 24.1 2.807 1.051 5.844 1.629 9.018 1.629 14.21 0 25.729-11.519 25.729-25.729v-23.352l-5.41-1.156c-4.612-.985-8.866-2.85-12.626-5.397z" fill="#f3a26f"></path><path d="m252.931 26.23c-3.173 0-6.211.578-9.018 1.629 9.761 3.654 16.711 13.064 16.711 24.1v33.196h18.035v-33.196c.001-14.209-11.518-25.729-25.728-25.729z" fill="#f3a26f"></path><path d="m354.92 454.178h-24.804v-58.894h24.804c8.301 0 15.029 6.729 15.029 15.029v28.835c0 8.301-6.729 15.03-15.029 15.03z" fill="#c28ee3"></path><path d="m250.449 395.284h39.833v58.894h-39.833z" fill="#00dcab"></path><path d="m250.449 436.143h39.833v18.035h-39.833z" fill="#10c68e"></path><path d="m170.783 454.178h-24.804c-8.3 0-15.029-6.729-15.029-15.029v-28.835c0-8.3 6.729-15.029 15.029-15.029h24.804z" fill="#fa496e"></path><path d="m130.95 421.113v18.035c0 8.3 6.729 15.029 15.029 15.029h24.804v-18.035h-24.804c-8.301.001-15.029-6.728-15.029-15.029z" fill="#e23760"></path><path d="m201.474 170.257c-14.21 0-25.729-11.519-25.729-25.728v-76.341c0-14.209 11.519-25.728 25.728-25.728 14.209 0 25.729 11.519 25.729 25.728v76.341c.001 14.209-11.518 25.728-25.728 25.728z" fill="#fdad7c"></path><path d="m201.474 42.459c-3.173 0-6.211.578-9.018 1.629 9.761 3.654 16.711 13.064 16.711 24.1v76.341c0 11.036-6.95 20.446-16.711 24.1 2.807 1.051 5.844 1.629 9.018 1.629 14.209 0 25.728-11.519 25.728-25.728v-76.342c.001-14.21-11.518-25.729-25.728-25.729z" fill="#f3a26f"></path><path d="m150.017 158.629c-14.209 0-25.728-11.519-25.728-25.728v-41.223c0-14.21 11.519-25.729 25.728-25.729 14.209 0 25.729 11.519 25.729 25.729v41.223c0 14.209-11.519 25.728-25.729 25.728z" fill="#fdad7c"></path><path d="m150.017 65.95c-3.174 0-6.211.578-9.018 1.629 9.761 3.654 16.711 13.064 16.711 24.1v41.223c0 11.036-6.95 20.446-16.711 24.1 2.807 1.051 5.844 1.629 9.018 1.629 14.209 0 25.729-11.519 25.729-25.728v-41.225c0-14.209-11.519-25.728-25.729-25.728z" fill="#f3a26f"></path><path d="m278.66 85.155v-51.912c0-14.209 11.519-25.728 25.728-25.728 14.209 0 25.728 11.519 25.728 25.728v51.911h-51.456z" fill="#fdad7c"></path><path d="m330.117 148.738v5.046c0 14.209-11.519 25.728-25.728 25.728-14.209 0-25.728-11.519-25.728-25.728v-16.037z" fill="#fdad7c"></path><path d="m304.388 7.515c-3.174 0-6.211.578-9.018 1.629 9.761 3.654 16.711 13.064 16.711 24.1v51.912h18.035v-51.913c.001-14.209-11.518-25.728-25.728-25.728z" fill="#f3a26f"></path><path d="m312.081 144.885v8.898c0 11.036-6.95 20.446-16.711 24.1 2.807 1.051 5.844 1.629 9.018 1.629 14.209 0 25.728-11.519 25.728-25.728v-5.046z" fill="#f3a26f"></path><path d="m170.783 395.284h39.833v58.894h-39.833z" fill="#ff8522"></path><path d="m170.783 436.143h39.833v18.035h-39.833z" fill="#ff7224"></path><path d="m210.616 395.284h39.833v58.894h-39.833z" fill="#fd0"></path><path d="m210.616 436.143h39.833v18.035h-39.833z" fill="#ffc239"></path><path d="m290.283 395.284h39.833v58.894h-39.833z" fill="#52dbff"></path><path d="m354.92 436.143h-24.804v18.035h24.804c8.301 0 15.029-6.729 15.029-15.029v-18.034c-.001 8.3-6.729 15.028-15.029 15.028z" fill="#a479d0"></path><path d="m290.283 436.143h39.833v18.035h-39.833z" fill="#2dcef9"></path><path d="m377.169 91.746c-8.509-9.36-19.869-14.106-33.765-14.106h-5.773v-44.397c0-18.33-14.913-33.243-33.243-33.243-15.45 0-28.471 10.595-32.183 24.9-5.441-3.887-12.093-6.184-19.275-6.184-14.701 0-27.195 9.595-31.57 22.849-5.55-4.156-12.436-6.621-19.887-6.621-16.932 0-30.938 12.727-32.978 29.115-5.288-3.55-11.645-5.625-18.479-5.625-18.33 0-33.243 14.913-33.243 33.243v41.223c0 .329.015.655.025.982-.011.164-.025.327-.025.494v78.098c0 1.009.099 25.043 8.725 53.499 1.237 4.081 5.765 6.329 9.771 4.877 3.699-1.341 5.751-5.477 4.612-9.237-7.948-26.22-8.078-48.919-8.079-49.139v-51.784c5.235 3.443 11.493 5.454 18.214 5.454 8.084 0 15.501-2.903 21.269-7.718 5.273 11.408 16.817 19.346 30.188 19.346 7.41 0 14.26-2.439 19.794-6.553 4.292 13.396 16.861 23.124 31.663 23.124 12.193 0 22.867-6.603 28.653-16.416 2.768 2.615 5.976 4.77 9.511 6.318-18.468 11.585-40.605 31.447-54.067 64.326-1.47 3.59.122 7.839 3.596 9.57 3.863 1.925 8.68.113 10.313-3.876 22.87-55.861 75.332-69.915 75.843-70.047 2.66-.67 4.744-2.737 5.435-5.391 0 0 7.278-28.03 7.29-28.083.867-4.059-1.721-8.052-5.78-8.919l-58.906-12.582c-13.514-2.887-23.322-15.476-23.322-29.934 0-3.661 2.743-6.639 6.113-6.639h85.794c9.618 0 17.026 3.005 22.645 9.186 12.687 13.956 16.877 44.521 12.455 90.846-.384 4.025 2.612 7.719 6.626 8.179 4.121.472 7.941-2.619 8.335-6.75 4.911-51.432-.42-84.923-16.295-102.385zm-208.938 41.155c0 10.043-8.171 18.214-18.214 18.214s-18.214-8.171-18.214-18.214v-41.223c0-10.043 8.171-18.214 18.214-18.214s18.214 8.171 18.214 18.214zm51.457 11.627c0 10.043-8.171 18.214-18.214 18.214s-18.214-8.171-18.214-18.214v-76.341c0-10.043 8.171-18.214 18.214-18.214s18.214 8.171 18.214 18.214zm66.486 2.508 36.399 7.775c-.066 1.18-.247 2.329-.528 3.439l-.027.102c-2.032 7.839-9.165 13.646-17.631 13.646-10.043 0-18.214-8.171-18.214-18.214v-6.748zm-15.029-69.396h-13.535c-11.658 0-21.143 9.72-21.143 21.668 0 21.314 14.552 39.934 34.677 44.504v17.286c0 10.043-8.17 18.214-18.214 18.214-10.043 0-18.214-8.171-18.214-18.214v-109.139c0-10.043 8.171-18.214 18.214-18.214 10.044 0 18.214 8.171 18.214 18.214v25.681zm51.457 0h-36.428v-25.681-18.716c0-10.043 8.171-18.214 18.214-18.214s18.213 8.171 18.213 18.214v44.397z"></path><path d="m383.406 215.885c-4.107-.601-7.922 2.245-8.521 6.352-.991 6.802-2.11 13.859-3.42 21.573-5.536 32.608-26.775 61.487-38.942 75.799-6.398 7.526-9.922 17.135-9.922 27.058v41.103h-144.325v-40.828c0-13.787-4.906-27.229-13.815-37.849-5.088-6.065-9.697-12.998-13.699-20.606-1.933-3.673-6.477-5.084-10.149-3.152-3.673 1.932-5.084 6.477-3.152 10.149 4.501 8.555 9.711 16.383 15.486 23.268 6.642 7.919 10.3 17.93 10.3 28.19v40.828h-17.268c-12.431 0-22.544 10.113-22.544 22.544v28.835c0 12.431 10.113 22.544 22.544 22.544h17.268v42.792c0 4.15 3.364 7.515 7.515 7.515h88.661c4.151 0 7.515-3.365 7.515-7.515s-3.364-7.515-7.515-7.515h-81.146v-35.278h144.325v35.278h-33.12c-4.151 0-7.515 3.365-7.515 7.515s3.364 7.515 7.515 7.515h40.635c4.151 0 7.515-3.365 7.515-7.515v-42.792h17.289c12.431 0 22.544-10.113 22.544-22.544v-28.835c0-12.431-10.113-22.544-22.544-22.544h-17.289v-41.103c0-6.36 2.253-12.512 6.342-17.323 13.166-15.488 36.171-46.867 42.31-83.019 1.329-7.832 2.466-15.002 3.474-21.921.599-4.106-2.245-7.921-6.352-8.519zm-220.159 230.778h-17.268c-4.144 0-7.515-3.371-7.515-7.515v-28.835c0-4.143 3.371-7.515 7.515-7.515h17.268zm94.718-43.864h24.803v43.865h-24.803zm-15.03 43.864h-24.805v-43.865h24.804v43.865zm-64.659-43.864h24.825v43.865h-24.825zm144.326 43.864h-24.804v-43.865h24.804zm32.318-43.864c4.144 0 7.515 3.371 7.515 7.515v28.835c0 4.144-3.371 7.515-7.515 7.515h-17.289v-43.865z"></path></svg>