<!-- icon666.com - MILLIONS vector ICONS FREE --><svg id="Capa_1" enable-background="new 0 0 512 512" viewBox="0 0 512 512" xmlns="http://www.w3.org/2000/svg"><g><g><g clip-rule="evenodd" fill-rule="evenodd"><path d="m305.134 291.5c0-12.023 10.866-18.826 10.866-32s-10.866-19.977-10.866-32 10.866-18.827 10.866-32-10.866-19.977-10.866-32 10.866-18.826 10.866-32-10.866-19.977-10.866-32 10.866-18.826 10.866-32c0-32.999-27-60-60-60s-60 27.001-60 60c0 13.174 10.866 19.977 10.866 32s-10.866 18.826-10.866 32c0 13.173 10.866 19.977 10.866 32s-10.866 18.827-10.866 32 10.866 19.977 10.866 32-10.866 18.826-10.866 32c0 13.173 10.866 19.977 10.866 32s-10.866 18.827-10.866 32v46c-28.875 0-52.5 23.625-52.5 52.5s23.624 52.5 52.5 52.5h120c28.875 0 52.5-23.625 52.5-52.5s-23.625-52.5-52.5-52.5v-46c0-13.174-10.866-19.977-10.866-32z" fill="#f88fa4"/><path d="m252.403 7.612c-31.343 1.877-56.403 28.097-56.403 59.888 0 13.174 10.866 19.977 10.866 32s-10.866 18.826-10.866 32c0 13.173 10.866 19.977 10.866 32s-10.866 18.827-10.866 32 10.866 19.977 10.866 32-10.866 18.826-10.866 32c0 13.173 10.866 19.977 10.866 32s-10.866 18.827-10.866 32v46c-28.875 0-52.5 23.625-52.5 52.5s23.624 52.5 52.5 52.5h120c17.743 0 33.501-8.922 43.016-22.5h-163.016c-16.456 0-30-13.544-30-30s13.544-30 30-30h22.5v-68.5c0-3.103 10.866-17.857 10.866-32 0-14.142-10.866-28.897-10.866-32 0-3.104 10.866-17.857 10.866-32 0-14.142-10.866-28.897-10.866-32s10.866-17.857 10.866-32c0-14.142-10.866-28.897-10.866-32 0-3.104 10.866-17.857 10.866-32 0-14.142-10.866-28.897-10.866-32 0-30.708 12.952-50.871 33.903-59.888z" fill="#f05475"/><path d="m316 474.5h-120c-16.5 0-29.999 13.5-29.999 30h179.998c0-16.5-13.499-30-29.999-30z" fill="#f88fa4"/><path d="m218.5 474.5h-22.5c-16.5 0-29.999 13.5-29.999 30h22.5c0-16.5 13.499-30 29.999-30z" fill="#f05475"/></g><g><path d="m289.346 79.264h-15v-15h15zm-15-30h-15v-15h15z" fill="#fff"/></g></g><g><path d="m248.5 497h15v15h-15z"/><path d="m376 422c0-30.543-22.943-55.83-52.5-59.533v-38.967c0-8.695-3.646-15.202-6.577-20.43-2.396-4.276-4.29-7.654-4.29-11.57s1.893-7.293 4.29-11.569c2.93-5.228 6.577-11.735 6.577-20.43 0-8.696-3.646-15.203-6.577-20.431-2.396-4.276-4.29-7.653-4.29-11.569s1.893-7.293 4.29-11.57c2.93-5.229 6.577-11.735 6.577-20.43 0-8.696-3.646-15.203-6.577-20.431-2.396-4.276-4.29-7.654-4.29-11.569 0-3.916 1.893-7.293 4.29-11.57 2.93-5.229 6.577-11.735 6.577-20.43 0-8.696-3.646-15.202-6.577-20.43-2.396-4.276-4.29-7.654-4.29-11.57s1.893-7.293 4.29-11.57c2.93-5.229 6.577-11.735 6.577-20.43 0-37.221-30.28-67.501-67.5-67.501s-67.5 30.28-67.5 67.5c0 8.695 3.646 15.202 6.577 20.43 2.396 4.276 4.29 7.654 4.29 11.57s-1.893 7.293-4.29 11.57c-2.93 5.228-6.577 11.734-6.577 20.43 0 8.695 3.646 15.202 6.577 20.43 2.396 4.276 4.29 7.654 4.29 11.57s-1.893 7.293-4.29 11.569c-2.93 5.228-6.577 11.735-6.577 20.431 0 8.695 3.646 15.202 6.577 20.43 2.396 4.276 4.29 7.654 4.29 11.57s-1.893 7.293-4.29 11.569c-2.93 5.229-6.577 11.735-6.577 20.431 0 8.695 3.646 15.202 6.577 20.43 2.396 4.276 4.29 7.654 4.29 11.569 0 3.916-1.893 7.294-4.29 11.57-2.93 5.228-6.577 11.735-6.577 20.43v7.5h15v-7.5c0-4.779 2.16-8.633 4.662-13.096 2.908-5.189 6.205-11.071 6.205-18.904s-3.296-13.714-6.205-18.903c-2.501-4.463-4.662-8.318-4.662-13.097s2.16-8.634 4.662-13.097c2.908-5.189 6.204-11.07 6.204-18.903s-3.296-13.714-6.205-18.904c-2.501-4.463-4.662-8.317-4.662-13.096s2.16-8.634 4.662-13.097c2.908-5.189 6.204-11.07 6.204-18.903s-3.296-13.714-6.205-18.904c-2.501-4.463-4.662-8.317-4.662-13.096s2.16-8.633 4.662-13.097c2.908-5.189 6.205-11.07 6.205-18.903s-3.296-13.714-6.205-18.904c-2.501-4.463-4.662-8.317-4.662-13.096 0-28.949 23.551-52.5 52.5-52.5s52.5 23.551 52.5 52.5c0 4.779-2.16 8.633-4.662 13.096-2.908 5.189-6.205 11.071-6.205 18.904s3.296 13.714 6.205 18.903c2.501 4.463 4.662 8.318 4.662 13.097s-2.16 8.633-4.662 13.096c-2.908 5.189-6.205 11.071-6.205 18.904s3.296 13.714 6.204 18.903c2.502 4.463 4.662 8.318 4.662 13.097s-2.16 8.633-4.662 13.096c-2.908 5.189-6.205 11.071-6.205 18.904s3.296 13.714 6.204 18.903c2.502 4.463 4.662 8.318 4.662 13.097s-2.16 8.633-4.662 13.097c-2.908 5.189-6.205 11.07-6.205 18.903s3.296 13.714 6.205 18.904c2.501 4.463 4.662 8.317 4.662 13.096v53.501h7.5c24.813 0 45 20.187 45 45s-20.187 45-45 45h-119.996c-24.813 0-45-20.187-45-45s20.187-45 45-45h7.5v-31h-15v16.467c-29.556 3.703-52.5 28.99-52.5 59.533 0 24.181 14.387 45.052 35.043 54.542-7.69 6.872-12.543 16.857-12.543 27.958v7.5h75v-15h-58.714c3.095-8.73 11.437-15 21.214-15h120c9.778 0 18.119 6.27 21.214 15h-58.714v15h75v-7.5c0-11.101-4.853-21.086-12.543-27.958 20.656-9.49 35.043-30.361 35.043-54.542z"/><path d="m276.604 108.795c-13.479 4.965-27.729 4.965-41.207 0l-5.185 14.076c8.436 3.106 17.112 4.66 25.788 4.66s17.353-1.554 25.788-4.66z"/></g></g></svg>