<!-- icon666.com - MILLIONS vector ICONS FREE --><svg id="Layer_1" enable-background="new 0 0 511.971 511.971" viewBox="0 0 511.971 511.971" xmlns="http://www.w3.org/2000/svg"><g><g><g><path d="m293.539 485.278c0-9.695-7.178-17.689-16.492-18.985v-52.791h-159.579v52.791c-9.314 1.296-16.492 9.29-16.492 18.985 0 10.683 9.307 18.796 19.142 19.19h154.281c9.85-.472 19.14-8.284 19.14-19.19z" fill="#555887"/><path d="m277.047 466.293v-52.791h-50v52.791c9.314 1.296 16.492 9.29 16.492 18.985 0 10.906-9.29 18.718-19.142 19.19h50c9.852-.472 19.142-8.284 19.142-19.19 0-9.695-7.178-17.689-16.492-18.985z" fill="#4b4d82"/><path d="m197.265 89.907h-.016c-44.062 0-79.782 35.719-79.782 79.782v243.813h159.579v-243.814c.001-44.062-35.719-79.781-79.781-79.781z" fill="#fadccb"/><path d="m197.265 89.907h-.016c-8.732 0-17.128 1.423-24.992 4.016 31.816 10.49 54.789 40.436 54.789 75.766v243.813h50v-243.814c.001-44.062-35.719-79.781-79.781-79.781z" fill="#f5d1bd"/><g><ellipse cx="363.292" cy="349.419" fill="#555887" rx="47.605" ry="76.48"/><path d="m363.292 272.94c-9.172 0-17.733 4.177-25 11.397 13.563 13.477 22.604 37.579 22.604 65.083s-9.041 51.606-22.604 65.083c7.267 7.22 15.828 11.397 25 11.397 26.291 0 47.604-34.241 47.604-76.48.001-42.239-21.312-76.48-47.604-76.48z" fill="#4b4d82"/><g fill="#8384bd"><path d="m385.174 281.481h-43.764v-19.716c0-6.038 4.894-10.932 10.932-10.932h21.9c6.038 0 10.932 4.894 10.932 10.932z"/><path d="m374.242 448.442h-21.9c-6.038 0-10.932-4.894-10.932-10.932v-19.716h43.764v19.716c0 6.038-4.894 10.932-10.932 10.932z"/></g></g></g></g><g><path d="m197.257 228.964c-9.652 0-9.668 15 0 15 9.652 0 9.668-15 0-15z"/><path d="m418.397 349.419c0-29.238-9.782-56.118-25.723-71.283v-16.372c0-11.821-10.906-19.2-21.882-18.432v-152.636c.185-80.188-97.921-120.837-154.496-64.576-15.403 15.239-24.552 35.119-26.233 56.584-44.779 3.666-80.097 41.276-80.097 86.983l.001 290.937c-26.455 11.62-19.25 49.61 9.849 51.337.776.008 154.169.017 154.94-.003 29.214-1.662 36.105-39.862 9.789-51.334v-290.936c0-16.505-4.65-32.594-13.448-46.527-2.212-3.502-6.846-4.549-10.346-2.337-3.503 2.211-4.549 6.843-2.338 10.346 7.282 11.533 11.132 24.852 11.132 38.519v236.313h-144.578v-236.313c-.478-54.483 60.048-90.074 107.391-63.19 3.617 2.015 8.186.713 10.2-2.905 2.015-3.619.714-8.187-2.905-10.201-10.626-5.915-22.438-9.529-34.557-10.625 1.628-17.448 9.202-33.569 21.751-45.985 47.23-46.929 129.103-13.037 128.945 53.915 0-.001 0 152.635 0 152.635-11.015-1.091-21.882 6.676-21.882 18.432v16.371c-34.029 31.187-34.001 111.348 0 142.568v16.824c0 10.163 8.269 18.432 18.432 18.432h21.9c10.163 0 18.432-8.269 18.432-18.432v-16.82c15.948-15.166 25.723-42.014 25.723-71.289zm-148.851 71.582v37.8h-71.918c-9.697 0-9.697 15 0 15h78.814c5.499.981 9.597 5.832 9.597 11.477 0 6.808-6.117 11.339-11.844 11.69h-153.908c-5.729-.297-11.812-5.031-11.812-11.69 0-5.661 4.121-10.524 9.644-11.485h34.317c9.697 0 9.697-15 0-15h-27.468v-37.792zm79.365-159.237c0-1.893 1.539-3.432 3.432-3.432h21.9c1.893 0 3.432 1.54 3.432 3.432v12.216h-28.764zm-25.723 87.655c0-24.891 8.21-48.216 21.084-60.438h38.041c27.996 25.837 27.849 95.967-.482 121.33h-37.08c-13.329-12.225-21.563-35.38-21.563-60.892zm54.486 88.108c0 1.892-1.539 3.432-3.432 3.432h-21.9c-1.893 0-3.432-1.54-3.432-3.432v-12.216h28.764z"/><path d="m222.234 212.337c-12.966-13.514-36.296-13.513-49.262 0-6.858 6.856 3.749 17.465 10.605 10.606 7.383-7.694 20.667-7.695 28.049 0 6.857 6.857 17.464-3.748 10.608-10.606z"/><path d="m172.971 250.992c-2.929 2.929-2.929 7.678.001 10.606 12.966 13.514 36.296 13.513 49.262 0 6.856-6.857-3.749-17.462-10.607-10.606-7.382 7.695-20.666 7.693-28.049 0-2.928-2.929-7.677-2.928-10.607 0z"/></g></g></svg>