<!-- icon666.com - MILLIONS vector ICONS FREE --><svg id="Layer_1" enable-background="new 0 0 511.745 511.745" viewBox="0 0 511.745 511.745" xmlns="http://www.w3.org/2000/svg"><g><path d="m359.968 44.932c-5.657-34.559-24.192-43.389-38.745-44.712-29.202-2.655-47.117 19.367-53.338 32.86-65.325 55.833-48.332 107.252-54.213 165.726-6.707 46.178-37.996 70.906-37.761 121.208-2.211 40.293 39.426 110.85 8.283 138.559l-27.878 22.033c-12.63 9.981-5.248 31.139 10.977 31.139h25.215c9.697 0 9.697-15 0-15h-25.215c-2.715-.701-3.274-2.158-1.676-4.371l28.058-22.175c.114-.09.226-.184.335-.281 26.397-23.486 16.462-60.565 6.853-96.423-14.264-48.718-14.032-73.332 8.249-116.424 8.043-16.701 16.361-33.97 19.421-56.222 1.571-11.428 1.622-23.352 1.675-35.977.158-37.295.323-75.759 37.978-112.01 2.707 17.456 8.106 34.724 15.68 49.788 4.358 8.663 17.758 1.925 13.401-6.738-8.54-16.985-14.058-37.083-15.615-56.8 2.817-5.69 14.631-26.094 38.215-23.955 33.017 1.177 27.423 65.754 25.025 89.848-.489 11.03-5.437 22.082-13.069 29.987-4.097-2.874-8.104-6.121-11.964-9.694-7.115-6.589-17.306 4.419-10.19 11.007 4.548 4.211 9.294 8.029 14.163 11.399-3.372 12.626-7.553 24.959-15.776 35.383-22.036 27.933-25.229 58.369-17.149 92.294 2.999 12.591 6.1 25.61 6.1 43.839 1.896 49.716-51.154 108.258-8.077 150.543.117.111.238.218.362.321l26.904 22.327c1.534 2.212.959 3.656-1.724 4.332h-78.963c-9.697 0-9.697 15 0 15h78.963c15.773 0 23.726-20.566 11.303-30.875l-26.711-22.167c-19.034-18.155-12.797-40.489-1.061-75.37 6.884-20.46 14.003-41.618 14.003-64.111 0-19.99-3.458-34.507-6.508-47.314-7.014-29.45-4.935-55.104 14.333-79.529 10.272-13.021 14.806-28.073 19.327-43.675 12.157-10.779 19.619-26.179 20.674-42.376 1.423-16.084 3.573-40.392.136-61.394z"/><path d="m228.789 347.333c-13.607-32.314 2.434-59.541 3.127-60.69 2.146-3.529 1.036-8.132-2.488-10.292-3.534-2.166-8.149-1.056-10.314 2.475-.858 1.4-20.82 34.737-4.149 74.329 3.681 8.743 17.581 3.099 13.824-5.822z"/></g></svg>